<svg xmlns="http://www.w3.org/2000/svg" viewBox="0 0 383 395"><defs><style>.cls-1{fill:#ebe8de;}.cls-2{fill:red;}</style></defs><title>Asset 9</title><g id="Layer_2" data-name="Layer 2"><g id="Layer_1-2" data-name="Layer 1"><rect class="cls-1" width="383" height="395"/><path class="cls-2" d="M268.19,154.12,237.95,150l-14.78-26a22.84,22.84,0,0,0-19.54-11.38H164.2A22.62,22.62,0,0,0,143,127.44l-8,22.09-20.05,4.25A4.93,4.93,0,0,0,111,158.7v28.72a4.93,4.93,0,0,0,4.93,4.93h11.89a22.33,22.33,0,0,0,44.52,0h38.57a22.33,22.33,0,0,0,44.52,0h11.89a4.93,4.93,0,0,0,4.93-4.93V159A4.68,4.68,0,0,0,268.19,154.12ZM150.1,202.38a11.72,11.72,0,1,1,11.72-11.72A11.75,11.75,0,0,1,150.1,202.38Zm1.19-53a1.09,1.09,0,0,1-1-1.36L156,132.37a8.43,8.43,0,0,1,8-5.61h7a1,1,0,0,1,1,.85l1.87,20.73a1,1,0,0,1-1,1Zm37-.85-1.87-20.73a1,1,0,0,1,1-1h16.14A8.85,8.85,0,0,1,211.1,131l9.69,16.82a1.06,1.06,0,0,1-.85,1.53H189.18A.8.8,0,0,1,188.33,148.51Zm45,53.87a11.72,11.72,0,1,1,11.72-11.72A11.75,11.75,0,0,1,233.36,202.38Z"/><path class="cls-2" d="M158.08,100.59A17.5,17.5,0,0,0,174.57,89h5.61c.17,0,.51.17.68.17l3.23,2.89a.64.64,0,0,0,1,0l4.76-4.25a.64.64,0,0,1,1,0l4.76,4.25a.64.64,0,0,0,1,0l4.76-4.25a.64.64,0,0,1,1,0l4.76,4.25a.64.64,0,0,0,1,0l3.23-2.89c.17-.17.34-.17.68-.17H216a1.3,1.3,0,0,0,.85-.34L221,83.6a1,1,0,0,0,0-1.36l-4.08-5.1a1.3,1.3,0,0,0-.85-.34H174.57a17.65,17.65,0,0,0-34.15,6.29A17.51,17.51,0,0,0,158.08,100.59ZM151.29,79a3.91,3.91,0,1,1-3.91,3.91A3.85,3.85,0,0,1,151.29,79Z"/></g></g></svg>