<svg xmlns="http://www.w3.org/2000/svg" viewBox="0 0 383 395"><defs><style>.cls-1{fill:#ebe8de;}.cls-2{fill:red;}</style></defs><title>Asset 5</title><g id="Layer_2" data-name="Layer 2"><g id="Layer_1-2" data-name="Layer 1"><rect class="cls-1" width="383" height="395"/><path class="cls-2" d="M157.55,206.12a33.29,33.29,0,0,1-12.15-2.3,5.15,5.15,0,0,1-1.76-8.44l14.23-14.23a.46.46,0,0,0,0-.66l-7.95-7.95a.46.46,0,0,0-.66,0L135,186.78a5.15,5.15,0,0,1-8.44-1.76,33.24,33.24,0,0,1,39.81-44.18l26.54-26.54A33.22,33.22,0,0,1,237.1,74.5a5.15,5.15,0,0,1,1.76,8.44L224.63,97.18a.46.46,0,0,0,0,.66l7.95,7.95a.47.47,0,0,0,.66,0l14.23-14.23a5.15,5.15,0,0,1,8.44,1.76,33.24,33.24,0,0,1-39.81,44.18L189.56,164a33.22,33.22,0,0,1-32,42.09Zm-8-44a10.7,10.7,0,0,1,7.62,3.16l7.95,7.95a10.77,10.77,0,0,1,0,15.23l-7.38,7.38a22.93,22.93,0,0,0,21.1-31.32A5.15,5.15,0,0,1,180,159l31-31a5.16,5.16,0,0,1,5.52-1.16,22.93,22.93,0,0,0,31.31-21.11l-7.37,7.37a10.77,10.77,0,0,1-15.23,0l-7.95-7.95a10.77,10.77,0,0,1,0-15.23l7.38-7.38a22.93,22.93,0,0,0-21.09,31.32,5.15,5.15,0,0,1-1.16,5.51l-31,31a5.15,5.15,0,0,1-5.52,1.16,22.93,22.93,0,0,0-31.31,21.11l7.37-7.37A10.7,10.7,0,0,1,149.59,162.1Z"/></g></g></svg>