<svg xmlns="http://www.w3.org/2000/svg" viewBox="0 0 1339.28 297.41"><defs><style>.cls-1{fill:#c6c2af;}.cls-2{fill:#4b823d;}.cls-3{fill:#3f6d32;}.cls-4{fill:#695020;}.cls-5{fill:#6fb259;}.cls-6{fill:#88c881;}.cls-7{fill:#6aa562;}.cls-8{fill:#6ba543;}.cls-9{fill:#83c451;}.cls-10{fill:#b4cb34;}.cls-11{fill:#aab72c;}.cls-12{fill:#94c85b;}.cls-13{fill:#84af4b;}.cls-14,.cls-17{fill:#666;}.cls-14{stroke:#666;stroke-miterlimit:10;stroke-width:5px;}.cls-15{fill:#4d4d4d;}.cls-16{fill:#39b54a;}</style></defs><title>Asset 13</title><g id="Layer_2" data-name="Layer 2"><g id="Layer_1-2" data-name="Layer 1"><ellipse class="cls-1" cx="1082.63" cy="282.68" rx="31.49" ry="12.5"/><ellipse class="cls-1" cx="819.21" cy="281.43" rx="37.35" ry="14.83"/><path class="cls-2" d="M820,200.43s-20.31-5.46-28.9-34-9.95-99.67,0-128.17S823.95-12,837.69,7.38s22.06,108.77,12.58,147S827.06,198.61,820,200.43Z"/><path class="cls-3" d="M812.75,5c16.75,1.77,25.35,40.34,28.91,68.22s6.36,89.33-16.91,96.6c-23.06,7.2-34.76-8-35-8.29.41,1.74.84,3.39,1.3,4.9,8.59,28.5,28.9,34,28.9,34,7.11-1.82,20.84-7.88,30.32-46.08s1.16-127.56-12.58-147C830.76-2.4,821.5-1.69,812.75,5Z"/><path class="cls-4" d="M810.84,285s2.59-104,1.85-107.44-10-19.47-10-19.47,11.85,14.47,13,8.49,3.33-51.4,3.33-51.4.74,45.91,3.7,45.41,15.18-18.47,15.18-18.47-14.07,24-14.07,32.94S824.92,285,824.92,285Z"/><ellipse class="cls-1" cx="690.66" cy="283.65" rx="57.66" ry="12.5"/><path class="cls-2" d="M645.09,283.65s-13.66-3.73-8.28-16.56,17-4.14,17-4.14-11.59-9.52-2.48-17.81,11.59,9.94,11.59,9.94-4.55-21.95,15.32-25.67,25.67,24.84,25.67,24.84,2.07-21.53,11.18-22.36,0,19.46,0,19.46,11.13-17.39,27.51-5-3.5,37.27-3.5,37.27Z"/><path class="cls-5" d="M643.32,271.15c2.19-5.86,14.79-4.19,14.79-4.19s-6.6-14-3.94-15.67S664.85,260,664.85,260s-1.08-14.33,6.63-20.33,22-.54,30,16.73c0,0,.92-1.32,2.21-2.82-1.06-4.39-7.51-27.51-25.51-24.13-17.46,3.27-16.07,20.6-15.47,24.77-.65-3.57-3.57-16.19-11.44-9-9.11,8.28,2.48,17.81,2.48,17.81s-11.59-8.7-17,4.14,8.28,16.56,8.28,16.56S641.14,277,643.32,271.15Z"/><path class="cls-5" d="M742.58,246.38c-16.38-12.42-27.51,5-27.51,5s9.11-20.29,0-19.46c-7.91.72-10.51,17-11.06,21.32,2.07-2.36,4.93-5,6.5-3.58,2.67,2.33,1.67,9,1.67,9s11.33-12,20.33-7.33,6.57,32.35,6.57,32.35S759,258.8,742.58,246.38Z"/><ellipse class="cls-1" cx="477.18" cy="284.03" rx="31.49" ry="12.5"/><path class="cls-6" d="M532.65,151c-4.87-17.33-20.94-25.4-35.53-25.45-5.87-15.07-25.34-23.27-41.13-17.21-18.31,7-23.28,27.48-18.62,41.86h0a30.06,30.06,0,0,0-14,13c-8.24,14.36,2.39,33.51,18.36,37,14.59,3.22,26.58-6.48,31.11-17.44,6.67,7.31,16.17,12.1,28.26,12.47C522.84,195.89,538.46,171.7,532.65,151Z"/><path class="cls-7" d="M495.2,177.33c-13.63,1.3-21.52-5.8-21.52-5.8s-9.33,10.09-28,11.5c-17.26,1.3-24.16-9.65-25.09-11.29-1.26,12.51,8.17,25.61,21.11,28.46,14.59,3.22,26.58-6.48,31.11-17.44,6.67,7.31,16.17,12.1,28.26,12.47,21.75.66,37.37-23.53,31.55-44.23-4.87-17.33-20.94-25.4-35.53-25.45C523.4,144.54,508.83,176,495.2,177.33Z"/><path class="cls-4" d="M467.75,287s2.63-92.29,1.88-95.47-10.15-17.73-10.15-17.73,12,13.18,13.16,7.73S476,134.72,476,134.72s.75,41.83,3.76,41.38,15.41-16.83,15.41-16.83-14.29,21.83-14.29,30S482,287,482,287Z"/><ellipse class="cls-1" cx="340.98" cy="281.3" rx="63.04" ry="12.5"/><path class="cls-8" d="M296.35,281.3s-9.65-24.58-2.3-32.83,21.84-7.33,26.66,1.37c0,0,1.38-8.93,11.72-10.42s13.33,8.13,13.56,12c0,0,8.28-6.87,17.7-5.73s11.73,9.39,9.89,12.37c0,0,24.68.3,15.63,23.21Z"/><path class="cls-9" d="M300.94,254.61c8-5,18.67,2.33,18.67,2.33s4-9.21,12.82-8.77,12.84,9.1,12.84,9.1,10.63-6.33,18.65-1.33,7,10.33,7,10.33,19.54-1.63,18.27,15c9.05-22.91-15.63-23.21-15.63-23.21,1.84-3-.46-11.22-9.89-12.37s-17.7,5.73-17.7,5.73c-.23-3.89-3.22-13.52-13.56-12s-11.72,10.42-11.72,10.42c-4.83-8.7-19.31-9.62-26.66-1.37s2.3,32.83,2.3,32.83S292.94,259.61,300.94,254.61Z"/><ellipse class="cls-1" cx="67.14" cy="281.51" rx="31.49" ry="12.5"/><path class="cls-10" d="M59.21,220.5S48,228.58,40.49,217.7c0,0-12.45,3.11-15.26-8.38,0,0-14.94-1.24-14.32-12.74,0,0-18.05-8.7-6.22-25.16,0,0-11.52-10.25,1.55-21.74,0,0-10-14.91,7.47-19.26,0,0,1.56-17.71,19-13.67,0,0,4.67-14.91,21.48-9.32,0,0,15.1-11.2,23.66,3.73,0,0,16.5-2.17,19.61,11.49,0,0,15.88,2.18,14.32,18,0,0,12.19,11.18,4.4,24.54,0,0,7.76,22.24-9.08,24.23a15.26,15.26,0,0,1-9.43,14.2s-1.78,11.89-12.36,10c0,0-8.1,9-14,4Z"/><path class="cls-11" d="M111.78,140.68c1.56-15.84-14.32-18-14.32-18,7.9,34.15-11.4,77.85-41.4,81.74s-45.14-7.82-45.14-7.82c-.62,11.49,14.32,12.74,14.32,12.74,2.8,11.49,15.26,8.38,15.26,8.38,7.47,10.87,18.72,2.79,18.72,2.79l12.1-2.79c5.91,5,14-4,14-4,10.58,1.87,12.36-10,12.36-10a15.26,15.26,0,0,0,9.43-14.2c16.84-2,9.08-24.23,9.08-24.23C124,151.86,111.78,140.68,111.78,140.68Z"/><path class="cls-4" d="M40.49,191.84s17.43,1.81,18.68,10.83-1.87,81.84-1.87,81.84H76s-8.1-81.84-5.29-87.77,11.83-9.28,11.83-9.28-10.28-.26-13.7,2.84-7.78,3.87-12.45,3.1S47,191.33,40.49,191.84Z"/><ellipse class="cls-1" cx="200.97" cy="281.51" rx="31.49" ry="12.5"/><path class="cls-12" d="M190.93,199.94s-37-12.46-45.63-39.18S145.88,96,179.91,83s77.31,9.5,79.61,46.32S238.68,191,208.43,199.94Z"/><path class="cls-13" d="M259.52,129.29c-1.06-16.92-10.77-30.83-24.26-39.65h0c17.2,27.12,2.8,77.88-32.4,86.88-34.66,8.86-53.44-7.41-54-7.91,12.39,21.33,42.09,31.34,42.09,31.34h17.5C238.68,191,261.83,166.11,259.52,129.29Z"/><path class="cls-4" d="M193.91,284.52s2.63-92.29,1.88-95.47-10.15-17.73-10.15-17.73,12,13.18,13.16,7.73,3.38-46.83,3.38-46.83.75,41.83,3.76,41.38,15.41-16.83,15.41-16.83-14.29,21.83-14.29,30,1.13,97.75,1.13,97.75Z"/><path class="cls-6" d="M1138.09,149.65c-4.87-17.33-20.94-25.4-35.53-25.45-5.87-15.07-25.34-23.27-41.13-17.21-18.31,7-23.28,27.48-18.62,41.86h0a30.06,30.06,0,0,0-14,13c-8.24,14.36,2.39,33.51,18.36,37,14.59,3.22,26.58-6.48,31.11-17.44,6.67,7.31,16.17,12.1,28.26,12.47C1128.29,194.54,1143.91,170.35,1138.09,149.65Z"/><path class="cls-7" d="M1100.64,176c-13.63,1.3-21.52-5.8-21.52-5.8s-9.33,10.09-28,11.5c-17.26,1.3-24.16-9.65-25.09-11.29-1.26,12.51,8.17,25.61,21.11,28.46,14.59,3.22,26.58-6.48,31.11-17.44,6.67,7.31,16.17,12.1,28.26,12.47,21.75.66,37.37-23.53,31.55-44.23-4.87-17.33-20.94-25.4-35.53-25.45C1128.85,143.19,1114.28,174.68,1100.64,176Z"/><path class="cls-4" d="M1073.2,285.69s2.63-92.29,1.88-95.47-10.15-17.73-10.15-17.73,12,13.18,13.16,7.73,3.38-46.83,3.38-46.83.75,41.83,3.76,41.38,15.41-16.83,15.41-16.83-14.29,21.83-14.29,30,1.13,97.75,1.13,97.75Z"/><rect class="cls-14" x="1290.29" y="170.41" width="34" height="70"/><circle class="cls-15" cx="1307.03" cy="203.88" r="7.39"/><circle class="cls-15" cx="1306.89" cy="225.75" r="7.39"/><circle class="cls-16" cx="1306.89" cy="183.31" r="7.39"/><ellipse class="cls-1" cx="1307.79" cy="284.91" rx="31.49" ry="12.5"/><rect class="cls-17" x="1303.79" y="237.91" width="6" height="50"/></g></g></svg>