<svg xmlns="http://www.w3.org/2000/svg" viewBox="0 0 28.37 21.13"><title>Asset 23</title><g id="Layer_2" data-name="Layer 2"><g id="Layer_1-2" data-name="Layer 1"><path d="M24.92,9.71V9.9a11.44,11.44,0,0,1-1.45,4.88c-1.09,1.74-4,6.35-10.29,6.35-4.27,0-7.44-1.06-9.71-3.24A11.75,11.75,0,0,1,0,10.72,24.22,24.22,0,0,1,.11,7.17,10.7,10.7,0,0,0,2.26,9a10.79,10.79,0,0,0,4.83,1.33h.24c1.26,0,3.57-.39,4.88-2.17a12.13,12.13,0,0,0,1.38-3A11.12,11.12,0,0,1,14.7,2.51C15.64,1.21,16.78,0,18.85,0a4.09,4.09,0,0,1,.53,0,5.83,5.83,0,0,1,4.18,2l.07.07A9.23,9.23,0,0,1,25,5.72l0,.17,3.31,1.64Z"/></g></g></svg>