<?xml version="1.0" encoding="utf-8"?>
<!-- Generator: Adobe Illustrator 19.0.0, SVG Export Plug-In . SVG Version: 6.00 Build 0)  -->
<svg version="1.1" id="Layer_1" xmlns="http://www.w3.org/2000/svg" xmlns:xlink="http://www.w3.org/1999/xlink" x="0px" y="0px"
	 viewBox="0 0 612 792" style="enable-background:new 0 0 612 792;" xml:space="preserve">
<style type="text/css">
	.st0{fill:#FFFFFF;}
</style>
<g transform="translate(0,-952.36218)">
	<path class="st0" d="M272.5,1349.3c0,0.5,0.3,1.2,0.6,1.5l17.5,18.6c0.8,0.8,2.1,0.9,3.1,0.1c0.9-0.8,0.9-2.3,0.1-3.1l-14.1-14.9
		h58.4c1.2,0,2.2-1,2.2-2.2c0-1.2-1-2.2-2.2-2.2h-58.4l14.1-14.9c0.8-0.8,0.7-2.3-0.1-3.1c-0.9-0.8-2.3-0.8-3.1,0.1l-17.5,18.6
		C272.6,1348.3,272.5,1348.8,272.5,1349.3L272.5,1349.3z"/>
</g>
</svg>
